<?xml version="1.0" encoding="UTF-8" standalone="no"?>
<svg
   xmlns:dc="http://purl.org/dc/elements/1.1/"
   xmlns:cc="http://creativecommons.org/ns#"
   xmlns:rdf="http://www.w3.org/1999/02/22-rdf-syntax-ns#"
   xmlns:svg="http://www.w3.org/2000/svg"
   xmlns="http://www.w3.org/2000/svg"
   xmlns:sodipodi="http://sodipodi.sourceforge.net/DTD/sodipodi-0.dtd"
   xmlns:inkscape="http://www.inkscape.org/namespaces/inkscape"
   sodipodi:docname="news_viz_logo_eye.svg"
   inkscape:version="1.0 (4035a4fb49, 2020-05-01)"
   id="svg1591"
   version="1.1"
   viewBox="0 0 210 210"
   height="210mm"
   width="210mm">
  <defs
     id="defs1585" />
  <sodipodi:namedview
     inkscape:window-maximized="1"
     inkscape:window-y="31"
     inkscape:window-x="0"
     inkscape:window-height="1021"
     inkscape:window-width="1920"
     showgrid="false"
     inkscape:document-rotation="0"
     inkscape:current-layer="g1526"
     inkscape:document-units="mm"
     inkscape:cy="539.91589"
     inkscape:cx="443.34225"
     inkscape:zoom="0.49497475"
     inkscape:pageshadow="2"
     inkscape:pageopacity="0.0"
     borderopacity="1.0"
     bordercolor="#666666"
     pagecolor="#ffffff"
     id="base" />
  <metadata
     id="metadata1588">
    <rdf:RDF>
      <cc:Work
         rdf:about="">
        <dc:format>image/svg+xml</dc:format>
        <dc:type
           rdf:resource="http://purl.org/dc/dcmitype/StillImage" />
        <dc:title></dc:title>
      </cc:Work>
    </rdf:RDF>
  </metadata>
  <g
     id="layer1"
     inkscape:groupmode="layer"
     inkscape:label="Layer 1">
    <g
       id="g1526"
       transform="matrix(3.3401632,0,0,3.3401632,900.94073,638.86884)"
       inkscape:export-xdpi="198.1198"
       inkscape:export-ydpi="198.1198">
      <path
         d="m -251.72345,-183.02904 c -4.56753,3.68552 -7.90448,8.95026 -8.90434,14.21055 -0.54625,2.87389 -0.28175,6.39263 0.75601,9.13657 1.20358,3.53893 2.82059,6.91565 4.33186,10.32897 1.43107,3.17145 2.77744,6.41783 3.43672,9.84975 0.57923,2.63829 1.0264,5.32188 1.97392,7.86203 0.4811,0.68913 1.72459,0.45487 1.93295,-0.35518 1.38381,-3.19558 2.57686,-6.53528 4.68315,-9.34841 0.81952,-1.16254 2.34272,-1.62801 3.71248,-1.45066 1.15445,0.19364 2.26556,0.5842 3.39472,0.88609 1.76474,0.51675 3.6433,0.85686 5.47415,0.51234 0.94463,-0.18276 1.81684,-0.63114 2.56294,-1.2317 1.73274,-1.31153 3.11056,-3.02314 4.82278,-4.35997 1.33365,-1.08898 2.83946,-2.01873 3.89663,-3.4039 1.15875,-1.57292 1.79628,-3.44217 2.51515,-5.23867 1.3294,-3.53668 2.14281,-7.34806 1.75898,-11.13771 -0.68273,-7.54531 -5.39121,-14.59113 -12.09586,-18.11683 -3.6956,-1.93137 -6.22873,-3.03692 -11.00801,-2.91795 -4.77928,0.11898 -10.44851,2.58784 -13.24423,4.77468 z"
         style="fill:none;fill-opacity:0.97;fill-rule:evenodd;stroke:#ee124e;stroke-width:0.775183;stroke-linecap:round;stroke-miterlimit:4;stroke-dasharray:none;stroke-opacity:1"
         id="path252-9-8"
         sodipodi:nodetypes="csccccccccccccccczc" />
      <path
         sodipodi:nodetypes="ccccccccc"
         id="path1094-3-6"
         d="m -238.56681,-151.2172 -0.38898,8.41856 m 0,0 c 2.41258,-0.42943 5.40218,-2.17932 6.92285,-4.13605 1.67222,-2.22661 2.9687,-4.71958 3.99214,-7.30368 0.96055,-2.60266 1.30768,-5.39146 1.32104,-8.15413 0.17431,-4.77781 -0.25318,-9.63771 -1.82601,-14.17689 -1.25378,-3.42258 -3.23687,-6.6495 -6.05968,-8.99678 -0.98735,-0.7862 -2.09515,-1.81497 -3.40861,-2.19274"
         style="fill:none;stroke:#ee124e;stroke-width:0.192339;stroke-linecap:butt;stroke-linejoin:miter;stroke-miterlimit:4;stroke-dasharray:none;stroke-opacity:1" />
      <path
         style="fill:none;stroke:#ee124e;stroke-width:0.192339;stroke-linecap:butt;stroke-linejoin:miter;stroke-miterlimit:4;stroke-dasharray:none;stroke-opacity:1"
         d="m -238.47917,-187.80372 h -5e-5 c -3.10839,1.76389 -5.66514,4.36689 -7.70448,7.25824 -2.94647,4.17743 -3.24594,9.83293 -3.07631,14.64069 -0.76091,5.4592 -0.078,11.04756 1.51745,16.3 0.37361,1.25092 0.81081,2.48796 1.40177,3.65433 0.63501,0.75782 1.67597,0.94265 2.60458,1.00404 1.80476,0.11927 3.47028,1.69425 4.78042,2.14778 m 0.18571,-5.07919 c 0.45144,-6.72408 0.37651,-13.46712 0.4483,-20.20197"
         id="path1098-6-6"
         sodipodi:nodetypes="ccscccsccc" />
      <path
         style="fill:none;stroke:#ee124e;stroke-width:0.192339;stroke-linecap:butt;stroke-linejoin:miter;stroke-miterlimit:4;stroke-dasharray:none;stroke-opacity:1"
         d="m -231.12989,-165.0022 c -2.88449,-0.596 -5.73177,-1.60721 -8.71534,-1.49809 h -4e-5 c -1.59171,0.21659 -2.91039,1.26729 -3.9677,2.41403 -1.59098,1.51908 -3.06506,3.24307 -5.04623,4.27002 -1.46351,0.59724 -3.18693,0.19861 -4.40478,-0.75629 -2.07492,-1.29763 -4.03508,-2.89435 -6.42917,-3.5699 -0.36376,-0.10445 -0.73246,-0.20282 -1.11176,-0.22683 -0.33227,0.14832 -0.32898,0.68357 -0.0182,0.85377 3.23614,3.55319 5.55477,7.83019 8.80885,11.36777 0.80629,0.83316 1.71055,1.5683 2.67502,2.21069 1.5281,0.36486 3.13782,-0.39759 4.09427,-1.58606 1.88236,-2.09985 3.27634,-4.62841 5.44069,-6.47359 1.28543,-0.83829 3.07187,-0.54774 4.19148,0.44169 1.78997,1.35712 3.58851,2.72097 5.56207,3.80442 1.36487,0.37732 2.81767,0.11575 4.1326,-0.3297 2.31879,-0.84293 4.23112,-2.48185 5.97561,-4.17916 1.5987,-1.58123 3.05872,-3.30095 4.40271,-5.10141"
         id="path1100-0-9"
         sodipodi:nodetypes="csczcccccccccccccc" />
      <path
         sodipodi:nodetypes="czccccccccccccccc"
         id="path1102-6-6"
         d="m -240.19588,-176.37222 c -2.77931,0.12798 -5.38531,1.50541 -7.34272,3.4356 -1.79016,1.68347 -3.67944,3.377 -6.01254,4.2585 -1.88202,0.7627 -3.90156,1.1183 -5.78664,1.86844 -0.79276,0.42749 -1.1943,0.782 -1.48374,1.42007 -0.15038,0.32408 -0.31022,1.08571 0.0167,1.02035 2.14077,0.24895 4.10803,1.32755 5.81828,2.5806 1.59909,1.10913 3.19869,2.34681 5.12305,2.81986 1.64552,0.32012 3.34954,-0.27691 4.64716,-1.28642 1.92353,-1.31641 3.70083,-2.92407 5.91246,-3.75204 1.8208,-0.55671 3.74529,-0.35589 5.61966,-0.42293 6.24278,-0.048 12.18442,-0.19206 18.42718,-0.2401 -0.17853,-0.96373 -0.49797,-1.66003 -0.97246,-2.49313 -2.02579,-3.05344 -5.09687,-5.30489 -8.44268,-6.72816 -4.47036,-1.84903 -9.34969,-2.48795 -14.16065,-2.48268 -0.45433,-0.005 -0.90865,-9e-5 -1.36297,0.002 z"
         style="fill:none;stroke:#ee124e;stroke-width:0.192339;stroke-linecap:butt;stroke-linejoin:miter;stroke-miterlimit:4;stroke-dasharray:none;stroke-opacity:1" />
      <path
         sodipodi:nodetypes="ccccccccccc"
         id="path1104-2-1"
         d="m -238.57135,-159.09819 c 0.12312,-9.47415 0.21708,-18.94865 0.30158,-28.42321 -0.0394,-0.17755 -0.2249,-0.32526 -0.40981,-0.2937 -3.53611,1.41185 -7.16615,2.55551 -9.98348,5.51881 -5.34608,4.93479 -6.12406,10.87154 -7.40268,16.63112 -0.42496,2.26226 -0.13509,4.60941 0.58191,6.78172 1.57863,5.7513 4.1363,11.16204 6.0956,16.78245 l 0.7411,2.02907 c 0.4909,0.54828 1.45541,0.44069 1.88058,-0.13433 1.34082,-1.12009 2.5287,-2.52896 4.2188,-3.13279 1.28845,-0.5947 2.6577,0.54496 3.59196,0.54041"
         style="fill:none;stroke:#ee124e;stroke-width:0.192339;stroke-linecap:butt;stroke-linejoin:miter;stroke-miterlimit:4;stroke-dasharray:none;stroke-opacity:1" />
      <path
         style="fill:none;stroke:#ee124e;stroke-width:0.192339;stroke-linecap:butt;stroke-linejoin:miter;stroke-miterlimit:4;stroke-dasharray:none;stroke-opacity:1"
         d="m -238.3897,-160.9828 c -0.054,3.35768 -0.0892,6.71671 -0.23191,10.07194 m -0.008,8.2936 c 2.10562,0.40076 5.5544,0.15952 7.49711,-0.74 2.23299,-1.03392 3.5369,-3.32971 5.17592,-5.11173 1.35795,-1.55564 3.06027,-2.87844 3.94178,-4.79378 0.86773,-1.93164 1.33396,-4.01102 1.77322,-6.07323 0.85716,-4.44786 0.73753,-9.14321 -0.75489,-13.44581 -1.48188,-4.36301 -4.33014,-8.28181 -8.14063,-10.89608 -2.56201,-1.83509 -5.81597,-3.63399 -8.87727,-4.08102"
         id="path1106-6-8"
         sodipodi:nodetypes="cccscccccc" />
      <g
         style="font-style:normal;font-weight:normal;font-size:21.9617px;line-height:1.25;font-family:sans-serif;letter-spacing:0px;word-spacing:0px;fill:#ffffff;fill-opacity:1;stroke:#ee124e;stroke-width:1.08176;stroke-miterlimit:4;stroke-dasharray:none;stroke-opacity:1"
         id="text1124-1-5"
         transform="scale(0.95052191,1.0520536)"
         aria-label="News">
        <g
           style="opacity:1"
           id="g1684">
          <path
             id="path1686"
             d="m -267.86411,-156.20876 h -3.21705 l -6.26251,-10.2731 v 10.2731 h -3.21705 v -15.61339 h 3.21705 l 6.27324,10.29455 v -10.29455 h 3.20632 z"
             style="color:#000000;font-style:normal;font-variant:normal;font-weight:bold;font-stretch:normal;font-size:medium;line-height:1.25;font-family:Roboto;-inkscape-font-specification:'Roboto Bold';font-variant-ligatures:normal;font-variant-position:normal;font-variant-caps:normal;font-variant-numeric:normal;font-variant-alternates:normal;font-variant-east-asian:normal;font-feature-settings:normal;font-variation-settings:normal;text-indent:0;text-align:start;text-decoration:none;text-decoration-line:none;text-decoration-style:solid;text-decoration-color:#000000;letter-spacing:0px;word-spacing:0px;text-transform:none;writing-mode:lr-tb;direction:ltr;text-orientation:mixed;dominant-baseline:auto;baseline-shift:baseline;text-anchor:start;white-space:normal;shape-padding:0;shape-margin:0;inline-size:0;clip-rule:nonzero;display:inline;overflow:visible;visibility:visible;isolation:auto;mix-blend-mode:normal;color-interpolation:sRGB;color-interpolation-filters:linearRGB;solid-color:#000000;solid-opacity:1;vector-effect:none;fill:#ffffff;fill-opacity:1;fill-rule:nonzero;stroke:none;stroke-width:1.08176;stroke-linecap:butt;stroke-linejoin:miter;stroke-miterlimit:4;stroke-dasharray:none;stroke-dashoffset:0;stroke-opacity:1.0;color-rendering:auto;image-rendering:auto;shape-rendering:auto;text-rendering:auto;enable-background:accumulate;stop-color:#000000;stop-opacity:1;" />
          <path
             id="path1688"
             d="M -281.10156 -172.36328 L -281.10156 -155.66797 L -276.80273 -155.66797 L -276.80273 -164.55664 L -271.38477 -155.66797 L -267.32227 -155.66797 L -267.32227 -156.20898 L -267.32227 -172.36328 L -271.61133 -172.36328 L -271.61133 -163.45312 L -277.03906 -172.36328 L -281.10156 -172.36328 z M -280.01953 -171.28125 L -277.64844 -171.28125 L -270.5293 -159.60156 L -270.5293 -171.28125 L -268.4043 -171.28125 L -268.4043 -156.75 L -270.77734 -156.75 L -277.88477 -168.4082 L -277.88477 -156.75 L -280.01953 -156.75 L -280.01953 -171.28125 z "
             style="color:#000000;font-style:normal;font-variant:normal;font-weight:bold;font-stretch:normal;font-size:medium;line-height:1.25;font-family:Roboto;-inkscape-font-specification:'Roboto Bold';font-variant-ligatures:normal;font-variant-position:normal;font-variant-caps:normal;font-variant-numeric:normal;font-variant-alternates:normal;font-variant-east-asian:normal;font-feature-settings:normal;font-variation-settings:normal;text-indent:0;text-align:start;text-decoration:none;text-decoration-line:none;text-decoration-style:solid;text-decoration-color:#000000;letter-spacing:0px;word-spacing:0px;text-transform:none;writing-mode:lr-tb;direction:ltr;text-orientation:mixed;dominant-baseline:auto;baseline-shift:baseline;text-anchor:start;white-space:normal;shape-padding:0;shape-margin:0;inline-size:0;clip-rule:nonzero;display:inline;overflow:visible;visibility:visible;isolation:auto;mix-blend-mode:normal;color-interpolation:sRGB;color-interpolation-filters:linearRGB;solid-color:#000000;solid-opacity:1;vector-effect:none;fill:#ee124e;fill-opacity:1;fill-rule:nonzero;stroke:none;stroke-width:1.08176;stroke-linecap:butt;stroke-linejoin:miter;stroke-miterlimit:4;stroke-dasharray:none;stroke-dashoffset:0;stroke-opacity:1.0;color-rendering:auto;image-rendering:auto;shape-rendering:auto;text-rendering:auto;enable-background:accumulate;stop-color:#000000;stop-opacity:1;" />
        </g>
        <g
           style="opacity:1"
           id="g1690">
          <path
             id="path1692"
             d="m -259.91801,-155.99429 c -1.70146,0 -3.08836,-0.52187 -4.16071,-1.56562 -1.0652,-1.04375 -1.5978,-2.43423 -1.5978,-4.17144 v -0.30026 c 0,-1.16529 0.22519,-2.20546 0.67558,-3.12053 0.45039,-0.92222 1.08665,-1.62997 1.90878,-2.12325 0.82928,-0.50043 1.77295,-0.75065 2.831,-0.75065 1.58707,0 2.83457,0.50043 3.7425,1.50129 0.91507,1.00086 1.3726,2.41993 1.3726,4.25722 v 1.26538 h -7.38848 c 0.10009,0.75779 0.40034,1.36546 0.90077,1.82299 0.50758,0.45753 1.14742,0.6863 1.91951,0.6863 1.19388,0 2.12682,-0.43251 2.79883,-1.29754 l 1.52273,1.70503 c -0.46468,0.65771 -1.09379,1.17244 -1.88733,1.54419 -0.79354,0.36459 -1.67287,0.54689 -2.63798,0.54689 z m -0.35387,-9.52245 c -0.61481,0 -1.11524,0.20732 -1.50129,0.62196 -0.3789,0.41464 -0.62197,1.00801 -0.7292,1.7801 h 4.31084 v -0.24664 c -0.0143,-0.68631 -0.20014,-1.21533 -0.55762,-1.58708 -0.35745,-0.37889 -0.86502,-0.56834 -1.52273,-0.56834 z"
             style="color:#000000;font-style:normal;font-variant:normal;font-weight:bold;font-stretch:normal;font-size:medium;line-height:1.25;font-family:Roboto;-inkscape-font-specification:'Roboto Bold';font-variant-ligatures:normal;font-variant-position:normal;font-variant-caps:normal;font-variant-numeric:normal;font-variant-alternates:normal;font-variant-east-asian:normal;font-feature-settings:normal;font-variation-settings:normal;text-indent:0;text-align:start;text-decoration:none;text-decoration-line:none;text-decoration-style:solid;text-decoration-color:#000000;letter-spacing:0px;word-spacing:0px;text-transform:none;writing-mode:lr-tb;direction:ltr;text-orientation:mixed;dominant-baseline:auto;baseline-shift:baseline;text-anchor:start;white-space:normal;shape-padding:0;shape-margin:0;inline-size:0;clip-rule:nonzero;display:inline;overflow:visible;visibility:visible;isolation:auto;mix-blend-mode:normal;color-interpolation:sRGB;color-interpolation-filters:linearRGB;solid-color:#000000;solid-opacity:1;vector-effect:none;fill:#ffffff;fill-opacity:1;fill-rule:nonzero;stroke:none;stroke-width:1.08176;stroke-linecap:butt;stroke-linejoin:miter;stroke-miterlimit:4;stroke-dasharray:none;stroke-dashoffset:0;stroke-opacity:1.0;color-rendering:auto;image-rendering:auto;shape-rendering:auto;text-rendering:auto;enable-background:accumulate;stop-color:#000000;stop-opacity:1;" />
          <path
             id="path1694"
             d="M -260.26172 -168.56641 C -261.40505 -168.56641 -262.45469 -168.29129 -263.37109 -167.73828 C -264.28338 -167.19091 -264.99568 -166.39333 -265.48633 -165.38867 C -265.97634 -164.3924 -266.2168 -163.26553 -266.2168 -162.03125 L -266.2168 -161.73047 C -266.2168 -159.88271 -265.62938 -158.32257 -264.45703 -157.17383 L -264.45508 -157.17188 C -263.28027 -156.0284 -261.73003 -155.45312 -259.91797 -155.45312 C -258.88475 -155.45313 -257.92382 -155.64951 -257.05469 -156.04883 L -257.05273 -156.05078 L -257.05078 -156.05078 C -256.183 -156.45731 -255.47187 -157.03644 -254.95117 -157.77344 L -254.70312 -158.125 L -256.78906 -160.46094 L -254.60547 -160.46094 L -254.60547 -162.26758 C -254.60547 -164.19355 -255.09212 -165.7663 -256.11719 -166.88867 C -257.13049 -168.00569 -258.56095 -168.56641 -260.26172 -168.56641 z M -260.26172 -167.48438 C -258.78834 -167.48438 -257.72248 -167.04681 -256.91992 -166.16211 L -256.91797 -166.16016 C -256.11412 -165.28094 -255.6875 -164.01507 -255.6875 -162.26758 L -255.6875 -161.54297 L -263.15234 -161.54297 L -263.07031 -160.93164 C -262.95675 -160.07184 -262.59497 -159.32506 -261.99805 -158.7793 L -261.99609 -158.77734 C -261.38721 -158.22849 -260.59378 -157.95117 -259.71484 -157.95117 C -258.62609 -157.95117 -257.72173 -158.38523 -256.98828 -159.05859 L -256.16016 -158.13281 C -256.53282 -157.70743 -256.92842 -157.30433 -257.50586 -157.0332 C -257.50642 -157.03295 -257.50725 -157.03346 -257.50781 -157.0332 C -257.50873 -157.03277 -257.50885 -157.03168 -257.50977 -157.03125 C -258.22676 -156.70251 -259.0225 -156.53516 -259.91797 -156.53516 C -261.50774 -156.53516 -262.72965 -157.00259 -263.69922 -157.94531 L -263.70117 -157.94727 C -264.6579 -158.88577 -265.13477 -160.10494 -265.13477 -161.73047 L -265.13477 -162.03125 C -265.13477 -163.12685 -264.92584 -164.08061 -264.51562 -164.91406 C -264.1055 -165.75384 -263.54644 -166.37331 -262.81445 -166.8125 L -262.8125 -166.8125 C -262.07034 -167.26036 -261.2345 -167.48438 -260.26172 -167.48438 z M -260.27148 -166.05859 C -261.00789 -166.05859 -261.6863 -165.78312 -262.16992 -165.26367 L -262.16992 -165.26172 L -262.17188 -165.25977 C -262.64641 -164.74047 -262.9217 -164.03446 -263.03906 -163.18945 L -263.12305 -162.57422 L -257.65039 -162.57422 L -257.65039 -163.36719 L -257.65039 -163.37305 C -257.66655 -164.15024 -257.88833 -164.83336 -258.35742 -165.32227 C -258.82844 -165.82035 -259.51085 -166.05859 -260.27148 -166.05859 z M -260.27148 -164.97656 C -259.71764 -164.97656 -259.38639 -164.83657 -259.14258 -164.57812 L -259.14062 -164.57617 L -259.13867 -164.57422 C -258.95523 -164.38346 -258.8928 -164.02401 -258.83398 -163.65625 L -261.7207 -163.65625 C -261.61259 -163.96421 -261.54054 -164.34572 -261.375 -164.52734 C -261.087 -164.83579 -260.76365 -164.97656 -260.27148 -164.97656 z M -261.69922 -160.46094 L -257.08008 -160.46094 L -257.3418 -160.12305 C -257.9186 -159.38057 -258.6516 -159.0332 -259.71484 -159.0332 C -260.37909 -159.0332 -260.86363 -159.21302 -261.26953 -159.57812 L -261.27148 -159.58008 C -261.50913 -159.79781 -261.57347 -160.15596 -261.69922 -160.46094 z "
             style="color:#000000;font-style:normal;font-variant:normal;font-weight:bold;font-stretch:normal;font-size:medium;line-height:1.25;font-family:Roboto;-inkscape-font-specification:'Roboto Bold';font-variant-ligatures:normal;font-variant-position:normal;font-variant-caps:normal;font-variant-numeric:normal;font-variant-alternates:normal;font-variant-east-asian:normal;font-feature-settings:normal;font-variation-settings:normal;text-indent:0;text-align:start;text-decoration:none;text-decoration-line:none;text-decoration-style:solid;text-decoration-color:#000000;letter-spacing:0px;word-spacing:0px;text-transform:none;writing-mode:lr-tb;direction:ltr;text-orientation:mixed;dominant-baseline:auto;baseline-shift:baseline;text-anchor:start;white-space:normal;shape-padding:0;shape-margin:0;inline-size:0;clip-rule:nonzero;display:inline;overflow:visible;visibility:visible;isolation:auto;mix-blend-mode:normal;color-interpolation:sRGB;color-interpolation-filters:linearRGB;solid-color:#000000;solid-opacity:1;vector-effect:none;fill:#ee124e;fill-opacity:1;fill-rule:nonzero;stroke:none;stroke-width:1.08176;stroke-linecap:butt;stroke-linejoin:miter;stroke-miterlimit:4;stroke-dasharray:none;stroke-dashoffset:0;stroke-opacity:1.0;color-rendering:auto;image-rendering:auto;shape-rendering:auto;text-rendering:auto;enable-background:accumulate;stop-color:#000000;stop-opacity:1;" />
        </g>
        <g
           style="opacity:1"
           id="g1696">
          <path
             id="path1698"
             d="m -243.29661,-160.42309 1.52274,-7.38848 h 2.99185 l -2.95968,11.60281 h -2.59508 l -2.19832,-7.30269 -2.19831,7.30269 h -2.58436 l -2.95969,-11.60281 h 2.99186 l 1.51201,7.37776 2.12325,-7.37776 h 2.24121 z"
             style="color:#000000;font-style:normal;font-variant:normal;font-weight:bold;font-stretch:normal;font-size:medium;line-height:1.25;font-family:Roboto;-inkscape-font-specification:'Roboto Bold';font-variant-ligatures:normal;font-variant-position:normal;font-variant-caps:normal;font-variant-numeric:normal;font-variant-alternates:normal;font-variant-east-asian:normal;font-feature-settings:normal;font-variation-settings:normal;text-indent:0;text-align:start;text-decoration:none;text-decoration-line:none;text-decoration-style:solid;text-decoration-color:#000000;letter-spacing:0px;word-spacing:0px;text-transform:none;writing-mode:lr-tb;direction:ltr;text-orientation:mixed;dominant-baseline:auto;baseline-shift:baseline;text-anchor:start;white-space:normal;shape-padding:0;shape-margin:0;inline-size:0;clip-rule:nonzero;display:inline;overflow:visible;visibility:visible;isolation:auto;mix-blend-mode:normal;color-interpolation:sRGB;color-interpolation-filters:linearRGB;solid-color:#000000;solid-opacity:1;vector-effect:none;fill:#ffffff;fill-opacity:1;fill-rule:nonzero;stroke:none;stroke-width:1.08176;stroke-linecap:butt;stroke-linejoin:miter;stroke-miterlimit:4;stroke-dasharray:none;stroke-dashoffset:0;stroke-opacity:1.0;color-rendering:auto;image-rendering:auto;shape-rendering:auto;text-rendering:auto;enable-background:accumulate;stop-color:#000000;stop-opacity:1;" />
          <path
             id="path1700"
             d="M -254.97266 -168.35156 L -251.73828 -155.66797 L -248.33203 -155.66797 L -246.53516 -161.63672 L -244.73828 -155.66797 L -241.32227 -155.66797 L -238.08594 -168.35156 L -242.21484 -168.35156 L -243.38281 -162.6875 L -245.00195 -168.35156 L -248.05664 -168.35156 L -249.68555 -162.69531 L -250.84375 -168.35156 L -254.97266 -168.35156 z M -253.58203 -167.27148 L -251.72656 -167.27148 L -250.30273 -160.32617 L -249.25391 -160.28516 L -247.24414 -167.27148 L -245.81641 -167.27148 L -243.81641 -160.27344 L -242.76758 -160.31445 L -241.33398 -167.27148 L -239.47852 -167.27148 L -242.16211 -156.75 L -243.93555 -156.75 L -246.53516 -165.38867 L -249.13477 -156.75 L -250.89844 -156.75 L -253.58203 -167.27148 z "
             style="color:#000000;font-style:normal;font-variant:normal;font-weight:bold;font-stretch:normal;font-size:medium;line-height:1.25;font-family:Roboto;-inkscape-font-specification:'Roboto Bold';font-variant-ligatures:normal;font-variant-position:normal;font-variant-caps:normal;font-variant-numeric:normal;font-variant-alternates:normal;font-variant-east-asian:normal;font-feature-settings:normal;font-variation-settings:normal;text-indent:0;text-align:start;text-decoration:none;text-decoration-line:none;text-decoration-style:solid;text-decoration-color:#000000;letter-spacing:0px;word-spacing:0px;text-transform:none;writing-mode:lr-tb;direction:ltr;text-orientation:mixed;dominant-baseline:auto;baseline-shift:baseline;text-anchor:start;white-space:normal;shape-padding:0;shape-margin:0;inline-size:0;clip-rule:nonzero;display:inline;overflow:visible;visibility:visible;isolation:auto;mix-blend-mode:normal;color-interpolation:sRGB;color-interpolation-filters:linearRGB;solid-color:#000000;solid-opacity:1;vector-effect:none;fill:#ee124e;fill-opacity:1;fill-rule:nonzero;stroke:none;stroke-width:1.08176;stroke-linecap:butt;stroke-linejoin:miter;stroke-miterlimit:4;stroke-dasharray:none;stroke-dashoffset:0;stroke-opacity:1.0;color-rendering:auto;image-rendering:auto;shape-rendering:auto;text-rendering:auto;enable-background:accumulate;stop-color:#000000;stop-opacity:1;" />
        </g>
        <g
           style="opacity:1"
           id="g1702">
          <path
             id="path1704"
             d="m -230.9646,-159.41508 c 0,-0.37889 -0.18945,-0.67558 -0.56834,-0.89005 -0.37175,-0.22162 -0.97226,-0.41822 -1.80155,-0.58979 -2.75951,-0.57907 -4.13926,-1.7515 -4.13926,-3.5173 0,-1.02945 0.42536,-1.88733 1.27609,-2.57364 0.85788,-0.69345 1.9767,-1.04018 3.35645,-1.04018 1.47269,0 2.6487,0.34673 3.52803,1.04018 0.88647,0.69345 1.32971,1.59423 1.32971,2.70232 h -3.09908 c 0,-0.44324 -0.14298,-0.80784 -0.42894,-1.0938 -0.28596,-0.29311 -0.73277,-0.43966 -1.34044,-0.43966 -0.52187,0 -0.92579,0.11796 -1.21175,0.35388 -0.28596,0.23591 -0.42894,0.53617 -0.42894,0.90077 0,0.34315 0.16085,0.62196 0.48255,0.83643 0.32885,0.20732 0.87933,0.38962 1.65142,0.5469 0.77209,0.15013 1.42265,0.3217 1.95168,0.51473 1.63711,0.60051 2.45567,1.64069 2.45567,3.12053 0,1.05805 -0.45396,1.91593 -1.36188,2.57364 -0.90792,0.65055 -2.08035,0.97583 -3.5173,0.97583 -0.97227,0 -1.8373,-0.17157 -2.59509,-0.51472 -0.75064,-0.3503 -1.34043,-0.82571 -1.76937,-1.42623 -0.42894,-0.60766 -0.64341,-1.26179 -0.64341,-1.96239 h 2.93823 c 0.0286,0.55047 0.23235,0.97226 0.61124,1.26537 0.3789,0.29311 0.88648,0.43966 1.52274,0.43966 0.59337,0 1.04018,-0.11081 1.34043,-0.33243 0.30741,-0.22877 0.46111,-0.52545 0.46111,-0.89005 z"
             style="color:#000000;font-style:normal;font-variant:normal;font-weight:bold;font-stretch:normal;font-size:medium;line-height:1.25;font-family:Roboto;-inkscape-font-specification:'Roboto Bold';font-variant-ligatures:normal;font-variant-position:normal;font-variant-caps:normal;font-variant-numeric:normal;font-variant-alternates:normal;font-variant-east-asian:normal;font-feature-settings:normal;font-variation-settings:normal;text-indent:0;text-align:start;text-decoration:none;text-decoration-line:none;text-decoration-style:solid;text-decoration-color:#000000;letter-spacing:0px;word-spacing:0px;text-transform:none;writing-mode:lr-tb;direction:ltr;text-orientation:mixed;dominant-baseline:auto;baseline-shift:baseline;text-anchor:start;white-space:normal;shape-padding:0;shape-margin:0;inline-size:0;clip-rule:nonzero;display:inline;overflow:visible;visibility:visible;isolation:auto;mix-blend-mode:normal;color-interpolation:sRGB;color-interpolation-filters:linearRGB;solid-color:#000000;solid-opacity:1;vector-effect:none;fill:#ffffff;fill-opacity:1;fill-rule:nonzero;stroke:none;stroke-width:1.08176;stroke-linecap:butt;stroke-linejoin:miter;stroke-miterlimit:4;stroke-dasharray:none;stroke-dashoffset:0;stroke-opacity:1.0;color-rendering:auto;image-rendering:auto;shape-rendering:auto;text-rendering:auto;enable-background:accumulate;stop-color:#000000;stop-opacity:1;" />
          <path
             id="path1706"
             d="M -232.8418 -168.56641 C -234.31216 -168.56641 -235.56898 -168.18882 -236.53711 -167.40625 C -237.4907 -166.63696 -238.01367 -165.59055 -238.01367 -164.41211 C -238.01367 -163.38833 -237.58104 -162.46985 -236.78906 -161.79688 C -235.99708 -161.1239 -234.87914 -160.66611 -233.44531 -160.36523 L -233.44336 -160.36523 C -232.64362 -160.19977 -232.08308 -160.00232 -231.81055 -159.83984 L -231.80469 -159.83789 L -231.79883 -159.83398 C -231.53876 -159.68677 -231.50586 -159.61462 -231.50586 -159.41602 C -231.50586 -159.20451 -231.55163 -159.10629 -231.74609 -158.96094 C -231.74639 -158.96072 -231.74775 -158.96116 -231.74805 -158.96094 C -231.91164 -158.84069 -232.24056 -158.73437 -232.76562 -158.73438 C -233.31883 -158.73438 -233.69402 -158.85709 -233.95703 -159.06055 C -234.21152 -159.25742 -234.33694 -159.49394 -234.35938 -159.92578 L -234.38672 -160.43945 L -238.37891 -160.43945 L -238.37891 -159.89844 C -238.37891 -159.08745 -238.12214 -158.31072 -237.63672 -157.62305 L -237.63477 -157.62109 C -237.148 -156.93962 -236.47649 -156.40322 -235.6543 -156.01953 L -235.65234 -156.01758 L -235.64844 -156.01562 C -234.81146 -155.63662 -233.86598 -155.45312 -232.83008 -155.45312 C -231.31151 -155.45312 -230.01578 -155.80201 -228.99805 -156.53125 L -228.99609 -156.53125 C -227.97658 -157.2698 -227.41016 -158.3302 -227.41016 -159.54297 C -227.41016 -161.22226 -228.44873 -162.52189 -230.2207 -163.17188 C -230.78691 -163.37847 -231.46385 -163.55499 -232.25586 -163.70898 L -232.25 -163.70898 C -232.9883 -163.85938 -233.4939 -164.04344 -233.71484 -164.18164 C -233.91705 -164.31802 -233.95117 -164.39106 -233.95117 -164.5625 C -233.95117 -164.78569 -233.8992 -164.89605 -233.71875 -165.04492 C -233.55738 -165.17805 -233.29193 -165.27539 -232.85156 -165.27539 C -232.33086 -165.27539 -232.05067 -165.15603 -231.89844 -165 L -231.89648 -164.99805 L -231.89453 -164.99414 C -231.70737 -164.80698 -231.62305 -164.61013 -231.62305 -164.2832 L -231.62305 -163.74219 L -227.44336 -163.74219 L -227.44336 -164.2832 C -227.44336 -165.53457 -227.98338 -166.63067 -228.97852 -167.41016 C -229.97313 -168.19452 -231.28421 -168.56641 -232.8418 -168.56641 z M -232.8418 -167.48438 C -231.454 -167.48438 -230.41248 -167.16309 -229.64844 -166.56055 L -229.64648 -166.56055 C -229.03528 -166.08243 -228.7575 -165.50211 -228.63867 -164.82422 L -230.75586 -164.82422 C -230.84778 -165.15441 -230.8848 -165.51257 -231.12695 -165.75586 C -231.54661 -166.18509 -232.15763 -166.35742 -232.85156 -166.35742 C -233.45494 -166.35742 -233.99765 -166.21957 -234.4082 -165.88086 C -234.79967 -165.5579 -235.0332 -165.06851 -235.0332 -164.5625 C -235.0332 -164.05032 -234.74303 -163.56371 -234.31055 -163.27539 L -234.30469 -163.27148 L -234.29883 -163.26758 C -233.86063 -162.99132 -233.26972 -162.812 -232.4668 -162.64844 L -232.46484 -162.64844 L -232.46094 -162.64844 C -231.70949 -162.50233 -231.08538 -162.33551 -230.59375 -162.15625 C -229.0915 -161.6052 -228.49219 -160.82335 -228.49219 -159.54297 C -228.49219 -158.63963 -228.83453 -157.98507 -229.63086 -157.4082 C -230.42871 -156.83728 -231.4759 -156.53516 -232.83008 -156.53516 C -233.73641 -156.53516 -234.51984 -156.69424 -235.19727 -157 L -235.19922 -157.00195 C -235.8769 -157.31869 -236.3833 -157.73115 -236.75391 -158.25 C -237.0036 -158.60415 -237.04143 -158.98284 -237.11914 -159.35742 L -235.1875 -159.35742 C -235.05973 -158.93076 -234.9677 -158.47473 -234.61914 -158.20508 C -234.12435 -157.82232 -233.48494 -157.65234 -232.76562 -157.65234 C -232.10492 -157.65234 -231.54269 -157.76712 -231.10547 -158.08984 L -231.10352 -158.08984 L -231.10352 -158.0918 C -230.6857 -158.40272 -230.42383 -158.8994 -230.42383 -159.41602 C -230.42383 -159.97368 -230.76814 -160.48922 -231.26367 -160.77148 C -231.73369 -161.05027 -232.36831 -161.24696 -233.22266 -161.42383 L -233.22461 -161.42383 C -234.54909 -161.70202 -235.50046 -162.12193 -236.08789 -162.62109 C -236.67566 -163.12055 -236.93359 -163.67009 -236.93359 -164.41211 C -236.93359 -165.29257 -236.60529 -165.96113 -235.85742 -166.56445 C -235.10979 -167.16879 -234.13094 -167.48438 -232.8418 -167.48438 z "
             style="color:#000000;font-style:normal;font-variant:normal;font-weight:bold;font-stretch:normal;font-size:medium;line-height:1.25;font-family:Roboto;-inkscape-font-specification:'Roboto Bold';font-variant-ligatures:normal;font-variant-position:normal;font-variant-caps:normal;font-variant-numeric:normal;font-variant-alternates:normal;font-variant-east-asian:normal;font-feature-settings:normal;font-variation-settings:normal;text-indent:0;text-align:start;text-decoration:none;text-decoration-line:none;text-decoration-style:solid;text-decoration-color:#000000;letter-spacing:0px;word-spacing:0px;text-transform:none;writing-mode:lr-tb;direction:ltr;text-orientation:mixed;dominant-baseline:auto;baseline-shift:baseline;text-anchor:start;white-space:normal;shape-padding:0;shape-margin:0;inline-size:0;clip-rule:nonzero;display:inline;overflow:visible;visibility:visible;isolation:auto;mix-blend-mode:normal;color-interpolation:sRGB;color-interpolation-filters:linearRGB;solid-color:#000000;solid-opacity:1;vector-effect:none;fill:#ee124e;fill-opacity:1;fill-rule:nonzero;stroke:none;stroke-width:1.08176;stroke-linecap:butt;stroke-linejoin:miter;stroke-miterlimit:4;stroke-dasharray:none;stroke-dashoffset:0;stroke-opacity:1.0;color-rendering:auto;image-rendering:auto;shape-rendering:auto;text-rendering:auto;enable-background:accumulate;stop-color:#000000;stop-opacity:1;" />
        </g>
      </g>
      <g
         style="font-style:normal;font-weight:normal;font-size:21.9463px;line-height:1.25;font-family:sans-serif;letter-spacing:0px;word-spacing:0px;fill:#ffffff;fill-opacity:1;stroke:#ee124e;stroke-width:1.08059;stroke-miterlimit:4;stroke-dasharray:none;stroke-opacity:1"
         id="text1128-7-6"
         transform="scale(1.0086797,0.99139499)"
         aria-label="Viz">
        <g
           style="opacity:1"
           id="g1715">
          <path
             id="path1717"
             d="m -231.52705,-151.81422 3.53627,-11.73398 h 3.57913 l -5.433,15.60244 h -3.35409 l -5.41157,-15.60244 h 3.56842 z"
             style="color:#000000;font-style:normal;font-variant:normal;font-weight:bold;font-stretch:normal;font-size:medium;line-height:1.25;font-family:Roboto;-inkscape-font-specification:'Roboto Bold';font-variant-ligatures:normal;font-variant-position:normal;font-variant-caps:normal;font-variant-numeric:normal;font-variant-alternates:normal;font-variant-east-asian:normal;font-feature-settings:normal;font-variation-settings:normal;text-indent:0;text-align:start;text-decoration:none;text-decoration-line:none;text-decoration-style:solid;text-decoration-color:#000000;letter-spacing:0px;word-spacing:0px;text-transform:none;writing-mode:lr-tb;direction:ltr;text-orientation:mixed;dominant-baseline:auto;baseline-shift:baseline;text-anchor:start;white-space:normal;shape-padding:0;shape-margin:0;inline-size:0;clip-rule:nonzero;display:inline;overflow:visible;visibility:visible;isolation:auto;mix-blend-mode:normal;color-interpolation:sRGB;color-interpolation-filters:linearRGB;solid-color:#000000;solid-opacity:1;vector-effect:none;fill:#ffffff;fill-opacity:1;fill-rule:nonzero;stroke:none;stroke-width:1.08059;stroke-linecap:butt;stroke-linejoin:miter;stroke-miterlimit:4;stroke-dasharray:none;stroke-dashoffset:0;stroke-opacity:1.0;color-rendering:auto;image-rendering:auto;shape-rendering:auto;text-rendering:auto;enable-background:accumulate;stop-color:#000000;stop-opacity:1;" />
          <path
             id="path1719"
             d="M -239.36914 -164.08789 L -233.58398 -147.40625 L -229.46094 -147.40625 L -223.65234 -164.08789 L -228.39258 -164.08789 L -231.52539 -153.69141 L -234.64062 -164.08789 L -239.36914 -164.08789 z M -237.85156 -163.00781 L -235.44336 -163.00781 L -231.5293 -149.9375 L -231.00977 -151.6582 L -227.58984 -163.00781 L -225.17188 -163.00781 L -230.22852 -148.48633 L -232.81445 -148.48633 L -237.85156 -163.00781 z "
             style="color:#000000;font-style:normal;font-variant:normal;font-weight:bold;font-stretch:normal;font-size:medium;line-height:1.25;font-family:Roboto;-inkscape-font-specification:'Roboto Bold';font-variant-ligatures:normal;font-variant-position:normal;font-variant-caps:normal;font-variant-numeric:normal;font-variant-alternates:normal;font-variant-east-asian:normal;font-feature-settings:normal;font-variation-settings:normal;text-indent:0;text-align:start;text-decoration:none;text-decoration-line:none;text-decoration-style:solid;text-decoration-color:#000000;letter-spacing:0px;word-spacing:0px;text-transform:none;writing-mode:lr-tb;direction:ltr;text-orientation:mixed;dominant-baseline:auto;baseline-shift:baseline;text-anchor:start;white-space:normal;shape-padding:0;shape-margin:0;inline-size:0;clip-rule:nonzero;display:inline;overflow:visible;visibility:visible;isolation:auto;mix-blend-mode:normal;color-interpolation:sRGB;color-interpolation-filters:linearRGB;solid-color:#000000;solid-opacity:1;vector-effect:none;fill:#ee124e;fill-opacity:1;fill-rule:nonzero;stroke:none;stroke-width:1.08059;stroke-linecap:butt;stroke-linejoin:miter;stroke-miterlimit:4;stroke-dasharray:none;stroke-dashoffset:0;stroke-opacity:1.0;color-rendering:auto;image-rendering:auto;shape-rendering:auto;text-rendering:auto;enable-background:accumulate;stop-color:#000000;stop-opacity:1;" />
        </g>
        <g
           style="opacity:1"
           id="g1721">
          <path
             id="path1723"
             d="m -219.8788,-147.94576 h -3.10763 v -11.59467 h 3.10763 z m -3.2898,-14.59514 c 0,-0.46436 0.1536,-0.84656 0.46079,-1.14661 0.31433,-0.30005 0.7394,-0.45007 1.2752,-0.45007 0.52865,0 0.95015,0.15002 1.26448,0.45007 0.31434,0.30005 0.47151,0.68225 0.47151,1.14661 0,0.4715 -0.16074,0.85727 -0.48222,1.15732 -0.31434,0.30005 -0.73226,0.45007 -1.25377,0.45007 -0.52151,0 -0.94301,-0.15002 -1.26449,-0.45007 -0.31433,-0.30005 -0.4715,-0.68582 -0.4715,-1.15732 z"
             style="color:#000000;font-style:normal;font-variant:normal;font-weight:bold;font-stretch:normal;font-size:medium;line-height:1.25;font-family:Roboto;-inkscape-font-specification:'Roboto Bold';font-variant-ligatures:normal;font-variant-position:normal;font-variant-caps:normal;font-variant-numeric:normal;font-variant-alternates:normal;font-variant-east-asian:normal;font-feature-settings:normal;font-variation-settings:normal;text-indent:0;text-align:start;text-decoration:none;text-decoration-line:none;text-decoration-style:solid;text-decoration-color:#000000;letter-spacing:0px;word-spacing:0px;text-transform:none;writing-mode:lr-tb;direction:ltr;text-orientation:mixed;dominant-baseline:auto;baseline-shift:baseline;text-anchor:start;white-space:normal;shape-padding:0;shape-margin:0;inline-size:0;clip-rule:nonzero;display:inline;overflow:visible;visibility:visible;isolation:auto;mix-blend-mode:normal;color-interpolation:sRGB;color-interpolation-filters:linearRGB;solid-color:#000000;solid-opacity:1;vector-effect:none;fill:#ffffff;fill-opacity:1;fill-rule:nonzero;stroke:none;stroke-width:1.08059;stroke-linecap:butt;stroke-linejoin:miter;stroke-miterlimit:4;stroke-dasharray:none;stroke-dashoffset:0;stroke-opacity:1.0;color-rendering:auto;image-rendering:auto;shape-rendering:auto;text-rendering:auto;enable-background:accumulate;stop-color:#000000;stop-opacity:1;" />
          <path
             id="path1725"
             d="M -221.43164 -164.67773 C -222.0683 -164.67773 -222.65483 -164.48404 -223.08008 -164.07812 L -223.08398 -164.07617 L -223.08594 -164.07422 C -223.4928 -163.67682 -223.70898 -163.12452 -223.70898 -162.54102 C -223.70898 -161.94945 -223.48689 -161.38983 -223.07031 -160.99219 L -223.06836 -160.99023 L -223.06641 -160.98828 C -222.63839 -160.5888 -222.05677 -160.39258 -221.43164 -160.39258 C -220.80742 -160.39258 -220.23073 -160.58833 -219.80859 -160.99023 C -219.38515 -161.3865 -219.15625 -161.94762 -219.15625 -162.54102 C -219.15625 -163.12729 -219.37988 -163.68196 -219.79492 -164.07812 C -220.21869 -164.48263 -220.80077 -164.67773 -221.43164 -164.67773 z M -221.43164 -163.59766 C -221.00521 -163.59766 -220.74592 -163.49246 -220.54102 -163.29688 C -220.32738 -163.09295 -220.23633 -162.88346 -220.23633 -162.54102 C -220.23633 -162.19231 -220.3286 -161.98302 -220.54688 -161.7793 L -220.54883 -161.77734 L -220.55273 -161.77344 C -220.75912 -161.57643 -221.01375 -161.47461 -221.43164 -161.47461 C -221.84872 -161.47461 -222.11146 -161.57945 -222.32617 -161.7793 C -222.5349 -161.98039 -222.62891 -162.19221 -222.62891 -162.54102 C -222.62891 -162.88439 -222.53721 -163.09515 -222.33203 -163.29688 C -222.12877 -163.49033 -221.86574 -163.59766 -221.43164 -163.59766 z M -223.52734 -160.08008 L -223.52734 -147.40625 L -219.33789 -147.40625 L -219.33789 -147.94531 L -219.33789 -160.08008 L -223.52734 -160.08008 z M -222.44531 -159 L -220.41992 -159 L -220.41992 -148.48633 L -222.44531 -148.48633 L -222.44531 -159 z "
             style="color:#000000;font-style:normal;font-variant:normal;font-weight:bold;font-stretch:normal;font-size:medium;line-height:1.25;font-family:Roboto;-inkscape-font-specification:'Roboto Bold';font-variant-ligatures:normal;font-variant-position:normal;font-variant-caps:normal;font-variant-numeric:normal;font-variant-alternates:normal;font-variant-east-asian:normal;font-feature-settings:normal;font-variation-settings:normal;text-indent:0;text-align:start;text-decoration:none;text-decoration-line:none;text-decoration-style:solid;text-decoration-color:#000000;letter-spacing:0px;word-spacing:0px;text-transform:none;writing-mode:lr-tb;direction:ltr;text-orientation:mixed;dominant-baseline:auto;baseline-shift:baseline;text-anchor:start;white-space:normal;shape-padding:0;shape-margin:0;inline-size:0;clip-rule:nonzero;display:inline;overflow:visible;visibility:visible;isolation:auto;mix-blend-mode:normal;color-interpolation:sRGB;color-interpolation-filters:linearRGB;solid-color:#000000;solid-opacity:1;vector-effect:none;fill:#ee124e;fill-opacity:1;fill-rule:nonzero;stroke:none;stroke-width:1.08059;stroke-linecap:butt;stroke-linejoin:miter;stroke-miterlimit:4;stroke-dasharray:none;stroke-dashoffset:0;stroke-opacity:1.0;color-rendering:auto;image-rendering:auto;shape-rendering:auto;text-rendering:auto;enable-background:accumulate;stop-color:#000000;stop-opacity:1;" />
        </g>
        <g
           style="opacity:1"
           id="g1727">
          <path
             id="path1729"
             d="m -213.77069,-150.44258 h 5.66874 v 2.49682 h -9.62294 v -1.88601 l 5.45443,-7.20113 h -5.29369 v -2.50753 h 9.29075 v 1.83243 z"
             style="color:#000000;font-style:normal;font-variant:normal;font-weight:bold;font-stretch:normal;font-size:medium;line-height:1.25;font-family:Roboto;-inkscape-font-specification:'Roboto Bold';font-variant-ligatures:normal;font-variant-position:normal;font-variant-caps:normal;font-variant-numeric:normal;font-variant-alternates:normal;font-variant-east-asian:normal;font-feature-settings:normal;font-variation-settings:normal;text-indent:0;text-align:start;text-decoration:none;text-decoration-line:none;text-decoration-style:solid;text-decoration-color:#000000;letter-spacing:0px;word-spacing:0px;text-transform:none;writing-mode:lr-tb;direction:ltr;text-orientation:mixed;dominant-baseline:auto;baseline-shift:baseline;text-anchor:start;white-space:normal;shape-padding:0;shape-margin:0;inline-size:0;clip-rule:nonzero;display:inline;overflow:visible;visibility:visible;isolation:auto;mix-blend-mode:normal;color-interpolation:sRGB;color-interpolation-filters:linearRGB;solid-color:#000000;solid-opacity:1;vector-effect:none;fill:#ffffff;fill-opacity:1;fill-rule:nonzero;stroke:none;stroke-width:1.08059;stroke-linecap:butt;stroke-linejoin:miter;stroke-miterlimit:4;stroke-dasharray:none;stroke-dashoffset:0;stroke-opacity:1.0;color-rendering:auto;image-rendering:auto;shape-rendering:auto;text-rendering:auto;enable-background:accumulate;stop-color:#000000;stop-opacity:1;" />
          <path
             id="path1731"
             d="M -218.10352 -160.08008 L -218.10352 -156.49219 L -213.35742 -156.49219 L -218.26562 -150.01367 L -218.26562 -147.40625 L -207.5625 -147.40625 L -207.5625 -150.98242 L -212.68555 -150.98242 L -207.73242 -157.52734 L -207.73242 -160.08008 L -218.10352 -160.08008 z M -217.02344 -159 L -208.81445 -159 L -208.81445 -157.88867 L -214.85742 -149.90234 L -213.77148 -149.90234 L -208.64258 -149.90234 L -208.64258 -148.48633 L -217.18555 -148.48633 L -217.18555 -149.65039 L -211.18359 -157.57227 L -217.02344 -157.57227 L -217.02344 -159 z "
             style="color:#000000;font-style:normal;font-variant:normal;font-weight:bold;font-stretch:normal;font-size:medium;line-height:1.25;font-family:Roboto;-inkscape-font-specification:'Roboto Bold';font-variant-ligatures:normal;font-variant-position:normal;font-variant-caps:normal;font-variant-numeric:normal;font-variant-alternates:normal;font-variant-east-asian:normal;font-feature-settings:normal;font-variation-settings:normal;text-indent:0;text-align:start;text-decoration:none;text-decoration-line:none;text-decoration-style:solid;text-decoration-color:#000000;letter-spacing:0px;word-spacing:0px;text-transform:none;writing-mode:lr-tb;direction:ltr;text-orientation:mixed;dominant-baseline:auto;baseline-shift:baseline;text-anchor:start;white-space:normal;shape-padding:0;shape-margin:0;inline-size:0;clip-rule:nonzero;display:inline;overflow:visible;visibility:visible;isolation:auto;mix-blend-mode:normal;color-interpolation:sRGB;color-interpolation-filters:linearRGB;solid-color:#000000;solid-opacity:1;vector-effect:none;fill:#ee124e;fill-opacity:1;fill-rule:nonzero;stroke:none;stroke-width:1.08059;stroke-linecap:butt;stroke-linejoin:miter;stroke-miterlimit:4;stroke-dasharray:none;stroke-dashoffset:0;stroke-opacity:1.0;color-rendering:auto;image-rendering:auto;shape-rendering:auto;text-rendering:auto;enable-background:accumulate;stop-color:#000000;stop-opacity:1;" />
        </g>
      </g>
      <path
         d="m -244.94701,-159.34911 c -1.75369,-1.65562 -4.00112,-2.882 -6.43031,-3.09913 -1.60242,-0.13959 -3.32305,0.43499 -4.34975,1.71061 -1.11977,1.4229 -1.37302,3.38632 -0.92943,5.11163 0.61743,2.75514 2.3417,5.19294 4.58036,6.88211 0.71292,0.52432 1.51207,0.94927 2.11397,1.6103 0.59734,0.88656 0.55564,2.06052 1.21694,2.91186 0.14563,0.22882 0.41792,0.40251 0.69512,0.30961 0.4591,-0.18091 0.65496,-0.68746 0.8464,-1.10371 0.26856,-0.5925 0.54342,-1.29308 1.20234,-1.54304 0.60827,-0.21267 1.28333,-0.19528 1.85599,-0.51654 1.60048,-0.72189 2.71003,-2.40049 2.75276,-4.15578 0.17844,-2.08841 -0.5776,-4.15575 -1.72005,-5.87639 -0.53125,-0.80859 -1.15831,-1.55073 -1.83434,-2.24153 z"
         style="fill:#ffffff;fill-opacity:1;fill-rule:evenodd;stroke:#ee124e;stroke-width:0.649648;stroke-linecap:round;stroke-miterlimit:4;stroke-dasharray:none;stroke-opacity:1"
         id="path1348-3" />
      <ellipse
         transform="rotate(46.742842)"
         ry="2.5344594"
         rx="3.6440744"
         cy="75.972351"
         cx="-283.54373"
         id="ellipse1350-0"
         style="fill:#ee124e;fill-opacity:1;fill-rule:evenodd;stroke:#ee124e;stroke-width:0.25943;stroke-linecap:round;stroke-miterlimit:4;stroke-dasharray:none;stroke-opacity:1" />
      <path
         style="fill:#ffffff;fill-opacity:1;stroke:#ee124e;stroke-width:0.308422px;stroke-linecap:butt;stroke-linejoin:miter;stroke-opacity:1"
         d="m -251.12017,-160.48896 c -1.17733,0.95284 0.78694,5.18139 0.78694,5.18139 0,0 3.1051,-2.81345 2.84018,-4.35135 -0.25485,-1.47951 -2.46015,-1.77452 -3.62712,-0.83004 z"
         id="path1352-2"
         sodipodi:nodetypes="scss" />
    </g>
  </g>
</svg>
